<?xml version="1.0" encoding="UTF-8" standalone="no"?>
<svg
   viewBox="0 0 14 14"
   version="1.1"
   id="svg1"
   sodipodi:docname="layout-home.svg"
   xml:space="preserve"
   inkscape:version="1.3 (0e150ed6c4, 2023-07-21)"
   xmlns:inkscape="http://www.inkscape.org/namespaces/inkscape"
   xmlns:sodipodi="http://sodipodi.sourceforge.net/DTD/sodipodi-0.dtd"
   xmlns="http://www.w3.org/2000/svg"
   xmlns:svg="http://www.w3.org/2000/svg"><defs
     id="defs1" /><sodipodi:namedview
     id="namedview1"
     pagecolor="#ffffff"
     bordercolor="#666666"
     borderopacity="1.0"
     inkscape:showpageshadow="2"
     inkscape:pageopacity="0.0"
     inkscape:pagecheckerboard="0"
     inkscape:deskcolor="#d1d1d1"
     inkscape:zoom="29.035714"
     inkscape:cx="-3.0479705"
     inkscape:cy="12.277983"
     inkscape:window-width="1920"
     inkscape:window-height="1009"
     inkscape:window-x="-8"
     inkscape:window-y="-8"
     inkscape:window-maximized="1"
     inkscape:current-layer="layer1" /><g
     id="g1"><rect
       x="0.5"
       y="0.5"
       width="13"
       height="13"
       rx="1"
       style="fill: none;stroke: #000001;stroke-linecap: round;stroke-linejoin: round"
       id="rect1" /><line
       x1="0.5"
       y1="3.5"
       x2="13.5"
       y2="3.5"
       style="fill: none;stroke: #000001;stroke-linecap: round;stroke-linejoin: round"
       id="line1" /></g><g
     inkscape:groupmode="layer"
     id="layer1"
     inkscape:label="Layer 1"><g
       style="fill:none"
       id="g2"
       transform="matrix(0.40916883,0,0,0.40916883,2.1300902,3.5846778)"><path
         stroke="#000000"
         stroke-linejoin="round"
         stroke-miterlimit="10"
         stroke-width="1.5"
         d="M 18.6,22 H 5.4 A 2.4,2.4 0 0 1 3,19.588 V 8.332 C 3,7.95 3.18,7.598 3.48,7.367 l 7.78,-5.126 a 1.195,1.195 0 0 1 1.44,0 l 7.82,5.126 C 20.82,7.598 21,7.95 21,8.332 V 19.588 A 2.4,2.4 0 0 1 18.6,22 Z"
         id="path1" /><path
         stroke="#000000"
         stroke-linejoin="round"
         stroke-miterlimit="10"
         stroke-width="1.5"
         d="m 9.8,12 h 4.4 c 0.44,0 0.8,0.36 0.8,0.8 V 22 H 9 V 12.8 C 9,12.36 9.36,12 9.8,12 Z"
         id="path2" /></g></g></svg>
