<svg xmlns="http://www.w3.org/2000/svg" version="1.1" xmlns:xlink="http://www.w3.org/1999/xlink" xmlns:svgjs="http://svgjs.com/svgjs" width="1400" height="500" preserveAspectRatio="none" viewBox="0 0 1400 500"><g mask="url(&quot;#SvgjsMask1015&quot;)" fill="none"><rect width="1400" height="500" x="0" y="0" fill="url(#SvgjsLinearGradient1016)"></rect><path d="M-41.56 381.99L-41.56 381.99" stroke="rgba(61, 103, 255, 1)" stroke-width="1.5"></path><path d="M-41.56 381.99L79.76 410.65" stroke="rgba(61, 103, 255, 1)" stroke-width="1.5"></path><path d="M-41.56 381.99L-71.5 516.24" stroke="rgba(61, 103, 255, 1)" stroke-width="1.5"></path><path d="M-41.56 381.99L88.33 495.95" stroke="rgba(61, 103, 255, 1)" stroke-width="1.5"></path><path d="M-71.5 516.24L-71.5 516.24" stroke="rgba(61, 103, 255, 1)" stroke-width="1.5"></path><path d="M-71.5 516.24L-110.14 642.25" stroke="rgba(61, 103, 255, 1)" stroke-width="1.5"></path><path d="M-110.14 642.25L-110.14 642.25" stroke="rgba(61, 103, 255, 1)" stroke-width="1.5"></path><path d="M-110.14 642.25L90.83 695.04" stroke="rgba(61, 103, 255, 1)" stroke-width="1.5"></path><path d="M-110.14 642.25L88.33 495.95" stroke="rgba(61, 103, 255, 1)" stroke-width="1.5"></path><path d="M79.76 410.65L79.76 410.65" stroke="rgba(61, 103, 255, 1)" stroke-width="1.5"></path><path d="M79.76 410.65L88.33 495.95" stroke="rgba(61, 103, 255, 1)" stroke-width="1.5"></path><path d="M79.76 410.65L192.04 526.36" stroke="rgba(61, 103, 255, 1)" stroke-width="1.5"></path><path d="M79.76 410.65L257.77 364.08" stroke="rgba(61, 103, 255, 1)" stroke-width="1.5"></path><path d="M88.33 495.95L88.33 495.95" stroke="rgba(61, 103, 255, 1)" stroke-width="1.5"></path><path d="M88.33 495.95L192.04 526.36" stroke="rgba(61, 103, 255, 1)" stroke-width="1.5"></path><path d="M90.83 695.04L90.83 695.04" stroke="rgba(61, 103, 255, 1)" stroke-width="1.5"></path><path d="M90.83 695.04L236.66 672.16" stroke="rgba(61, 103, 255, 1)" stroke-width="1.5"></path><path d="M90.83 695.04L192.04 526.36" stroke="rgba(61, 103, 255, 1)" stroke-width="1.5"></path><path d="M90.83 695.04L88.33 495.95" stroke="rgba(61, 103, 255, 1)" stroke-width="1.5"></path><path d="M90.83 695.04L-71.5 516.24" stroke="rgba(61, 103, 255, 1)" stroke-width="1.5"></path><path d="M90.83 695.04L79.76 410.65" stroke="rgba(61, 103, 255, 1)" stroke-width="1.5"></path><path d="M257.77 364.08L257.77 364.08" stroke="rgba(61, 103, 255, 1)" stroke-width="1.5"></path><path d="M257.77 364.08L406.33 338.07" stroke="rgba(61, 103, 255, 1)" stroke-width="1.5"></path><path d="M257.77 364.08L359.54 495.55" stroke="rgba(61, 103, 255, 1)" stroke-width="1.5"></path><path d="M257.77 364.08L192.04 526.36" stroke="rgba(61, 103, 255, 1)" stroke-width="1.5"></path><path d="M192.04 526.36L192.04 526.36" stroke="rgba(61, 103, 255, 1)" stroke-width="1.5"></path><path d="M192.04 526.36L236.66 672.16" stroke="rgba(61, 103, 255, 1)" stroke-width="1.5"></path><path d="M192.04 526.36L359.54 495.55" stroke="rgba(61, 103, 255, 1)" stroke-width="1.5"></path><path d="M236.66 672.16L236.66 672.16" stroke="rgba(61, 103, 255, 1)" stroke-width="1.5"></path><path d="M236.66 672.16L399.64 706.43" stroke="rgba(61, 103, 255, 1)" stroke-width="1.5"></path><path d="M236.66 672.16L359.54 495.55" stroke="rgba(61, 103, 255, 1)" stroke-width="1.5"></path><path d="M236.66 672.16L88.33 495.95" stroke="rgba(61, 103, 255, 1)" stroke-width="1.5"></path><path d="M406.33 338.07L406.33 338.07" stroke="rgba(61, 103, 255, 1)" stroke-width="1.5"></path><path d="M406.33 338.07L490.88 339.58" stroke="rgba(61, 103, 255, 1)" stroke-width="1.5"></path><path d="M406.33 338.07L516.79 253.08" stroke="rgba(61, 103, 255, 1)" stroke-width="1.5"></path><path d="M406.33 338.07L359.54 495.55" stroke="rgba(61, 103, 255, 1)" stroke-width="1.5"></path><path d="M406.33 338.07L516.89 538.95" stroke="rgba(61, 103, 255, 1)" stroke-width="1.5"></path><path d="M359.54 495.55L359.54 495.55" stroke="rgba(61, 103, 255, 1)" stroke-width="1.5"></path><path d="M359.54 495.55L516.89 538.95" stroke="rgba(61, 103, 255, 1)" stroke-width="1.5"></path><path d="M359.54 495.55L490.88 339.58" stroke="rgba(61, 103, 255, 1)" stroke-width="1.5"></path><path d="M399.64 706.43L399.64 706.43" stroke="rgba(61, 103, 255, 1)" stroke-width="1.5"></path><path d="M399.64 706.43L505.2 659.64" stroke="rgba(61, 103, 255, 1)" stroke-width="1.5"></path><path d="M516.79 253.08L516.79 253.08" stroke="rgba(61, 103, 255, 1)" stroke-width="1.5"></path><path d="M516.79 253.08L490.88 339.58" stroke="rgba(61, 103, 255, 1)" stroke-width="1.5"></path><path d="M516.79 253.08L703.91 216.33" stroke="rgba(61, 103, 255, 1)" stroke-width="1.5"></path><path d="M516.79 253.08L703.79 377.71" stroke="rgba(61, 103, 255, 1)" stroke-width="1.5"></path><path d="M490.88 339.58L490.88 339.58" stroke="rgba(61, 103, 255, 1)" stroke-width="1.5"></path><path d="M490.88 339.58L516.89 538.95" stroke="rgba(61, 103, 255, 1)" stroke-width="1.5"></path><path d="M490.88 339.58L703.79 377.71" stroke="rgba(61, 103, 255, 1)" stroke-width="1.5"></path><path d="M516.89 538.95L516.89 538.95" stroke="rgba(61, 103, 255, 1)" stroke-width="1.5"></path><path d="M516.89 538.95L505.2 659.64" stroke="rgba(61, 103, 255, 1)" stroke-width="1.5"></path><path d="M516.89 538.95L657.41 515.24" stroke="rgba(61, 103, 255, 1)" stroke-width="1.5"></path><path d="M516.89 538.95L641.06 694.08" stroke="rgba(61, 103, 255, 1)" stroke-width="1.5"></path><path d="M505.2 659.64L505.2 659.64" stroke="rgba(61, 103, 255, 1)" stroke-width="1.5"></path><path d="M505.2 659.64L641.06 694.08" stroke="rgba(61, 103, 255, 1)" stroke-width="1.5"></path><path d="M505.2 659.64L657.41 515.24" stroke="rgba(61, 103, 255, 1)" stroke-width="1.5"></path><path d="M703.91 216.33L703.91 216.33" stroke="rgba(61, 103, 255, 1)" stroke-width="1.5"></path><path d="M703.91 216.33L855.67 250.31" stroke="rgba(61, 103, 255, 1)" stroke-width="1.5"></path><path d="M703.91 216.33L703.79 377.71" stroke="rgba(61, 103, 255, 1)" stroke-width="1.5"></path><path d="M703.91 216.33L844.94 391.01" stroke="rgba(61, 103, 255, 1)" stroke-width="1.5"></path><path d="M703.91 216.33L490.88 339.58" stroke="rgba(61, 103, 255, 1)" stroke-width="1.5"></path><path d="M703.79 377.71L703.79 377.71" stroke="rgba(61, 103, 255, 1)" stroke-width="1.5"></path><path d="M703.79 377.71L844.94 391.01" stroke="rgba(61, 103, 255, 1)" stroke-width="1.5"></path><path d="M703.79 377.71L657.41 515.24" stroke="rgba(61, 103, 255, 1)" stroke-width="1.5"></path><path d="M703.79 377.71L855.67 250.31" stroke="rgba(61, 103, 255, 1)" stroke-width="1.5"></path><path d="M703.79 377.71L823.16 554.46" stroke="rgba(61, 103, 255, 1)" stroke-width="1.5"></path><path d="M657.41 515.24L657.41 515.24" stroke="rgba(61, 103, 255, 1)" stroke-width="1.5"></path><path d="M641.06 694.08L641.06 694.08" stroke="rgba(61, 103, 255, 1)" stroke-width="1.5"></path><path d="M641.06 694.08L657.41 515.24" stroke="rgba(61, 103, 255, 1)" stroke-width="1.5"></path><path d="M855.67 250.31L855.67 250.31" stroke="rgba(61, 103, 255, 1)" stroke-width="1.5"></path><path d="M855.67 250.31L953.41 229.52" stroke="rgba(61, 103, 255, 1)" stroke-width="1.5"></path><path d="M855.67 250.31L844.94 391.01" stroke="rgba(61, 103, 255, 1)" stroke-width="1.5"></path><path d="M844.94 391.01L844.94 391.01" stroke="rgba(61, 103, 255, 1)" stroke-width="1.5"></path><path d="M844.94 391.01L973.46 379.47" stroke="rgba(61, 103, 255, 1)" stroke-width="1.5"></path><path d="M823.16 554.46L823.16 554.46" stroke="rgba(61, 103, 255, 1)" stroke-width="1.5"></path><path d="M823.16 554.46L847.35 673.82" stroke="rgba(61, 103, 255, 1)" stroke-width="1.5"></path><path d="M823.16 554.46L844.94 391.01" stroke="rgba(61, 103, 255, 1)" stroke-width="1.5"></path><path d="M847.35 673.82L847.35 673.82" stroke="rgba(61, 103, 255, 1)" stroke-width="1.5"></path><path d="M847.35 673.82L985.18 690.01" stroke="rgba(61, 103, 255, 1)" stroke-width="1.5"></path><path d="M953.41 229.52L953.41 229.52" stroke="rgba(61, 103, 255, 1)" stroke-width="1.5"></path><path d="M973.46 379.47L973.46 379.47" stroke="rgba(61, 103, 255, 1)" stroke-width="1.5"></path><path d="M973.46 379.47L1088 370.96" stroke="rgba(61, 103, 255, 1)" stroke-width="1.5"></path><path d="M973.46 379.47L983.21 510" stroke="rgba(61, 103, 255, 1)" stroke-width="1.5"></path><path d="M973.46 379.47L953.41 229.52" stroke="rgba(61, 103, 255, 1)" stroke-width="1.5"></path><path d="M973.46 379.47L855.67 250.31" stroke="rgba(61, 103, 255, 1)" stroke-width="1.5"></path><path d="M973.46 379.47L1115.01 522.95" stroke="rgba(61, 103, 255, 1)" stroke-width="1.5"></path><path d="M983.21 510L983.21 510" stroke="rgba(61, 103, 255, 1)" stroke-width="1.5"></path><path d="M983.21 510L1115.01 522.95" stroke="rgba(61, 103, 255, 1)" stroke-width="1.5"></path><path d="M983.21 510L823.16 554.46" stroke="rgba(61, 103, 255, 1)" stroke-width="1.5"></path><path d="M983.21 510L1088 370.96" stroke="rgba(61, 103, 255, 1)" stroke-width="1.5"></path><path d="M983.21 510L985.18 690.01" stroke="rgba(61, 103, 255, 1)" stroke-width="1.5"></path><path d="M985.18 690.01L985.18 690.01" stroke="rgba(61, 103, 255, 1)" stroke-width="1.5"></path><path d="M985.18 690.01L1138.46 660.32" stroke="rgba(61, 103, 255, 1)" stroke-width="1.5"></path><path d="M1158.8 -111.92L1158.8 -111.92" stroke="rgba(61, 103, 255, 1)" stroke-width="1.5"></path><path d="M1158.8 -111.92L1278.97 -99.94" stroke="rgba(61, 103, 255, 1)" stroke-width="1.5"></path><path d="M1158.8 -111.92L1134.4 86.78" stroke="rgba(61, 103, 255, 1)" stroke-width="1.5"></path><path d="M1158.8 -111.92L1395.52 -100.58" stroke="rgba(61, 103, 255, 1)" stroke-width="1.5"></path><path d="M1158.8 -111.92L1308.31 100.88" stroke="rgba(61, 103, 255, 1)" stroke-width="1.5"></path><path d="M1158.8 -111.92L1400.19 106.51" stroke="rgba(61, 103, 255, 1)" stroke-width="1.5"></path><path d="M1134.4 86.78L1134.4 86.78" stroke="rgba(61, 103, 255, 1)" stroke-width="1.5"></path><path d="M1134.4 86.78L1128.46 220.82" stroke="rgba(61, 103, 255, 1)" stroke-width="1.5"></path><path d="M1134.4 86.78L1308.31 100.88" stroke="rgba(61, 103, 255, 1)" stroke-width="1.5"></path><path d="M1134.4 86.78L1275.4 209.81" stroke="rgba(61, 103, 255, 1)" stroke-width="1.5"></path><path d="M1134.4 86.78L953.41 229.52" stroke="rgba(61, 103, 255, 1)" stroke-width="1.5"></path><path d="M1134.4 86.78L1278.97 -99.94" stroke="rgba(61, 103, 255, 1)" stroke-width="1.5"></path><path d="M1128.46 220.82L1128.46 220.82" stroke="rgba(61, 103, 255, 1)" stroke-width="1.5"></path><path d="M1128.46 220.82L1275.4 209.81" stroke="rgba(61, 103, 255, 1)" stroke-width="1.5"></path><path d="M1088 370.96L1088 370.96" stroke="rgba(61, 103, 255, 1)" stroke-width="1.5"></path><path d="M1088 370.96L1115.01 522.95" stroke="rgba(61, 103, 255, 1)" stroke-width="1.5"></path><path d="M1088 370.96L1128.46 220.82" stroke="rgba(61, 103, 255, 1)" stroke-width="1.5"></path><path d="M1088 370.96L1277.94 391.1" stroke="rgba(61, 103, 255, 1)" stroke-width="1.5"></path><path d="M1088 370.96L953.41 229.52" stroke="rgba(61, 103, 255, 1)" stroke-width="1.5"></path><path d="M1115.01 522.95L1115.01 522.95" stroke="rgba(61, 103, 255, 1)" stroke-width="1.5"></path><path d="M1115.01 522.95L1138.46 660.32" stroke="rgba(61, 103, 255, 1)" stroke-width="1.5"></path><path d="M1138.46 660.32L1138.46 660.32" stroke="rgba(61, 103, 255, 1)" stroke-width="1.5"></path><path d="M1138.46 660.32L1278.18 707.03" stroke="rgba(61, 103, 255, 1)" stroke-width="1.5"></path><path d="M1278.97 -99.94L1278.97 -99.94" stroke="rgba(61, 103, 255, 1)" stroke-width="1.5"></path><path d="M1278.97 -99.94L1395.52 -100.58" stroke="rgba(61, 103, 255, 1)" stroke-width="1.5"></path><path d="M1278.97 -99.94L1308.31 100.88" stroke="rgba(61, 103, 255, 1)" stroke-width="1.5"></path><path d="M1278.97 -99.94L1400.19 106.51" stroke="rgba(61, 103, 255, 1)" stroke-width="1.5"></path><path d="M1308.31 100.88L1308.31 100.88" stroke="rgba(61, 103, 255, 1)" stroke-width="1.5"></path><path d="M1308.31 100.88L1400.19 106.51" stroke="rgba(61, 103, 255, 1)" stroke-width="1.5"></path><path d="M1308.31 100.88L1275.4 209.81" stroke="rgba(61, 103, 255, 1)" stroke-width="1.5"></path><path d="M1275.4 209.81L1275.4 209.81" stroke="rgba(61, 103, 255, 1)" stroke-width="1.5"></path><path d="M1275.4 209.81L1400.19 106.51" stroke="rgba(61, 103, 255, 1)" stroke-width="1.5"></path><path d="M1275.4 209.81L1277.94 391.1" stroke="rgba(61, 103, 255, 1)" stroke-width="1.5"></path><path d="M1275.4 209.81L1453.63 247.04" stroke="rgba(61, 103, 255, 1)" stroke-width="1.5"></path><path d="M1277.94 391.1L1277.94 391.1" stroke="rgba(61, 103, 255, 1)" stroke-width="1.5"></path><path d="M1277.94 391.1L1286.1 507.64" stroke="rgba(61, 103, 255, 1)" stroke-width="1.5"></path><path d="M1277.94 391.1L1397.23 405.37" stroke="rgba(61, 103, 255, 1)" stroke-width="1.5"></path><path d="M1286.1 507.64L1286.1 507.64" stroke="rgba(61, 103, 255, 1)" stroke-width="1.5"></path><path d="M1286.1 507.64L1397.23 405.37" stroke="rgba(61, 103, 255, 1)" stroke-width="1.5"></path><path d="M1278.18 707.03L1278.18 707.03" stroke="rgba(61, 103, 255, 1)" stroke-width="1.5"></path><path d="M1278.18 707.03L1461.05 682.16" stroke="rgba(61, 103, 255, 1)" stroke-width="1.5"></path><path d="M1278.18 707.03L1286.1 507.64" stroke="rgba(61, 103, 255, 1)" stroke-width="1.5"></path><path d="M1278.18 707.03L1115.01 522.95" stroke="rgba(61, 103, 255, 1)" stroke-width="1.5"></path><path d="M1278.18 707.03L985.18 690.01" stroke="rgba(61, 103, 255, 1)" stroke-width="1.5"></path><path d="M1278.18 707.03L1277.94 391.1" stroke="rgba(61, 103, 255, 1)" stroke-width="1.5"></path><path d="M1395.52 -100.58L1395.52 -100.58" stroke="rgba(61, 103, 255, 1)" stroke-width="1.5"></path><path d="M1395.52 -100.58L1538.43 -51.52" stroke="rgba(61, 103, 255, 1)" stroke-width="1.5"></path><path d="M1395.52 -100.58L1400.19 106.51" stroke="rgba(61, 103, 255, 1)" stroke-width="1.5"></path><path d="M1395.52 -100.58L1308.31 100.88" stroke="rgba(61, 103, 255, 1)" stroke-width="1.5"></path><path d="M1395.52 -100.58L1550 84.06" stroke="rgba(61, 103, 255, 1)" stroke-width="1.5"></path><path d="M1400.19 106.51L1400.19 106.51" stroke="rgba(61, 103, 255, 1)" stroke-width="1.5"></path><path d="M1400.19 106.51L1453.63 247.04" stroke="rgba(61, 103, 255, 1)" stroke-width="1.5"></path><path d="M1400.19 106.51L1550 84.06" stroke="rgba(61, 103, 255, 1)" stroke-width="1.5"></path><path d="M1400.19 106.51L1543.21 224.04" stroke="rgba(61, 103, 255, 1)" stroke-width="1.5"></path><path d="M1453.63 247.04L1453.63 247.04" stroke="rgba(61, 103, 255, 1)" stroke-width="1.5"></path><path d="M1453.63 247.04L1543.21 224.04" stroke="rgba(61, 103, 255, 1)" stroke-width="1.5"></path><path d="M1453.63 247.04L1577.98 341.7" stroke="rgba(61, 103, 255, 1)" stroke-width="1.5"></path><path d="M1453.63 247.04L1397.23 405.37" stroke="rgba(61, 103, 255, 1)" stroke-width="1.5"></path><path d="M1397.23 405.37L1397.23 405.37" stroke="rgba(61, 103, 255, 1)" stroke-width="1.5"></path><path d="M1461.05 682.16L1461.05 682.16" stroke="rgba(61, 103, 255, 1)" stroke-width="1.5"></path><path d="M1461.05 682.16L1589.5 557.83" stroke="rgba(61, 103, 255, 1)" stroke-width="1.5"></path><path d="M1538.43 -51.52L1538.43 -51.52" stroke="rgba(61, 103, 255, 1)" stroke-width="1.5"></path><path d="M1538.43 -51.52L1550 84.06" stroke="rgba(61, 103, 255, 1)" stroke-width="1.5"></path><path d="M1538.43 -51.52L1400.19 106.51" stroke="rgba(61, 103, 255, 1)" stroke-width="1.5"></path><path d="M1550 84.06L1550 84.06" stroke="rgba(61, 103, 255, 1)" stroke-width="1.5"></path><path d="M1550 84.06L1543.21 224.04" stroke="rgba(61, 103, 255, 1)" stroke-width="1.5"></path><path d="M1550 84.06L1453.63 247.04" stroke="rgba(61, 103, 255, 1)" stroke-width="1.5"></path><path d="M1543.21 224.04L1543.21 224.04" stroke="rgba(61, 103, 255, 1)" stroke-width="1.5"></path><path d="M1543.21 224.04L1577.98 341.7" stroke="rgba(61, 103, 255, 1)" stroke-width="1.5"></path><path d="M1543.21 224.04L1397.23 405.37" stroke="rgba(61, 103, 255, 1)" stroke-width="1.5"></path><path d="M1577.98 341.7L1577.98 341.7" stroke="rgba(61, 103, 255, 1)" stroke-width="1.5"></path><path d="M1577.98 341.7L1397.23 405.37" stroke="rgba(61, 103, 255, 1)" stroke-width="1.5"></path><path d="M1577.98 341.7L1589.5 557.83" stroke="rgba(61, 103, 255, 1)" stroke-width="1.5"></path><path d="M1589.5 557.83L1589.5 557.83" stroke="rgba(61, 103, 255, 1)" stroke-width="1.5"></path><path d="M1589.5 557.83L1397.23 405.37" stroke="rgba(61, 103, 255, 1)" stroke-width="1.5"></path><path d="M1589.5 557.83L1286.1 507.64" stroke="rgba(61, 103, 255, 1)" stroke-width="1.5"></path><path d="M1589.5 557.83L1543.21 224.04" stroke="rgba(61, 103, 255, 1)" stroke-width="1.5"></path><path d="M1589.5 557.83L1453.63 247.04" stroke="rgba(61, 103, 255, 1)" stroke-width="1.5"></path><circle r="5" cx="-41.56" cy="381.99" fill="rgba(61, 103, 255, 1)"></circle><circle r="5" cx="-71.5" cy="516.24" fill="rgba(61, 103, 255, 1)"></circle><circle r="5" cx="-110.14" cy="642.25" fill="rgba(61, 103, 255, 1)"></circle><circle r="5" cx="79.76" cy="410.65" fill="rgba(61, 103, 255, 1)"></circle><circle r="5" cx="88.33" cy="495.95" fill="rgba(61, 103, 255, 1)"></circle><circle r="5" cx="90.83" cy="695.04" fill="rgba(61, 103, 255, 1)"></circle><circle r="5" cx="257.77" cy="364.08" fill="rgba(61, 103, 255, 1)"></circle><circle r="5" cx="192.04" cy="526.36" fill="rgba(61, 103, 255, 1)"></circle><circle r="5" cx="236.66" cy="672.16" fill="rgba(61, 103, 255, 1)"></circle><circle r="5" cx="406.33" cy="338.07" fill="rgba(61, 103, 255, 1)"></circle><circle r="5" cx="359.54" cy="495.55" fill="rgba(61, 103, 255, 1)"></circle><circle r="5" cx="399.64" cy="706.43" fill="rgba(61, 103, 255, 1)"></circle><circle r="5" cx="516.79" cy="253.08" fill="rgba(61, 103, 255, 1)"></circle><circle r="5" cx="490.88" cy="339.58" fill="rgba(61, 103, 255, 1)"></circle><circle r="5" cx="516.89" cy="538.95" fill="rgba(61, 103, 255, 1)"></circle><circle r="5" cx="505.2" cy="659.64" fill="rgba(61, 103, 255, 1)"></circle><circle r="5" cx="703.91" cy="216.33" fill="rgba(61, 103, 255, 1)"></circle><circle r="5" cx="703.79" cy="377.71" fill="rgba(61, 103, 255, 1)"></circle><circle r="5" cx="657.41" cy="515.24" fill="rgba(61, 103, 255, 1)"></circle><circle r="5" cx="641.06" cy="694.08" fill="rgba(61, 103, 255, 1)"></circle><circle r="5" cx="855.67" cy="250.31" fill="rgba(61, 103, 255, 1)"></circle><circle r="5" cx="844.94" cy="391.01" fill="rgba(61, 103, 255, 1)"></circle><circle r="5" cx="823.16" cy="554.46" fill="rgba(61, 103, 255, 1)"></circle><circle r="5" cx="847.35" cy="673.82" fill="rgba(61, 103, 255, 1)"></circle><circle r="5" cx="953.41" cy="229.52" fill="rgba(61, 103, 255, 1)"></circle><circle r="5" cx="973.46" cy="379.47" fill="rgba(61, 103, 255, 1)"></circle><circle r="5" cx="983.21" cy="510" fill="rgba(61, 103, 255, 1)"></circle><circle r="5" cx="985.18" cy="690.01" fill="rgba(61, 103, 255, 1)"></circle><circle r="5" cx="1158.8" cy="-111.92" fill="rgba(61, 103, 255, 1)"></circle><circle r="5" cx="1134.4" cy="86.78" fill="rgba(61, 103, 255, 1)"></circle><circle r="5" cx="1128.46" cy="220.82" fill="rgba(61, 103, 255, 1)"></circle><circle r="5" cx="1088" cy="370.96" fill="rgba(61, 103, 255, 1)"></circle><circle r="5" cx="1115.01" cy="522.95" fill="rgba(61, 103, 255, 1)"></circle><circle r="5" cx="1138.46" cy="660.32" fill="rgba(61, 103, 255, 1)"></circle><circle r="5" cx="1278.97" cy="-99.94" fill="rgba(61, 103, 255, 1)"></circle><circle r="5" cx="1308.31" cy="100.88" fill="rgba(61, 103, 255, 1)"></circle><circle r="5" cx="1275.4" cy="209.81" fill="rgba(61, 103, 255, 1)"></circle><circle r="5" cx="1277.94" cy="391.1" fill="rgba(61, 103, 255, 1)"></circle><circle r="5" cx="1286.1" cy="507.64" fill="rgba(61, 103, 255, 1)"></circle><circle r="5" cx="1278.18" cy="707.03" fill="rgba(61, 103, 255, 1)"></circle><circle r="5" cx="1395.52" cy="-100.58" fill="rgba(61, 103, 255, 1)"></circle><circle r="5" cx="1400.19" cy="106.51" fill="rgba(61, 103, 255, 1)"></circle><circle r="5" cx="1453.63" cy="247.04" fill="rgba(61, 103, 255, 1)"></circle><circle r="5" cx="1397.23" cy="405.37" fill="rgba(61, 103, 255, 1)"></circle><circle r="5" cx="1461.05" cy="682.16" fill="rgba(61, 103, 255, 1)"></circle><circle r="5" cx="1538.43" cy="-51.52" fill="rgba(61, 103, 255, 1)"></circle><circle r="5" cx="1550" cy="84.06" fill="rgba(61, 103, 255, 1)"></circle><circle r="5" cx="1543.21" cy="224.04" fill="rgba(61, 103, 255, 1)"></circle><circle r="5" cx="1577.98" cy="341.7" fill="rgba(61, 103, 255, 1)"></circle><circle r="5" cx="1589.5" cy="557.83" fill="rgba(61, 103, 255, 1)"></circle><path d="M364.63 549.4L364.63 549.4" stroke="hsl(0, 0%, 100%)" stroke-width="1.5"></path><path d="M364.63 549.4L237.33 506.18" stroke="hsl(0, 0%, 100%)" stroke-width="1.5"></path><path d="M364.63 549.4L390.72 683.19" stroke="hsl(0, 0%, 100%)" stroke-width="1.5"></path><path d="M364.63 549.4L232.48 639.75" stroke="hsl(0, 0%, 100%)" stroke-width="1.5"></path><path d="M390.72 683.19L390.72 683.19" stroke="hsl(0, 0%, 100%)" stroke-width="1.5"></path><path d="M390.72 683.19L232.48 639.75" stroke="hsl(0, 0%, 100%)" stroke-width="1.5"></path><path d="M558.09 537.62L558.09 537.62" stroke="hsl(0, 0%, 100%)" stroke-width="1.5"></path><path d="M558.09 537.62L554.83 654.93" stroke="hsl(0, 0%, 100%)" stroke-width="1.5"></path><path d="M558.09 537.62L686.49 504.73" stroke="hsl(0, 0%, 100%)" stroke-width="1.5"></path><path d="M558.09 537.62L522.07 387.64" stroke="hsl(0, 0%, 100%)" stroke-width="1.5"></path><path d="M558.09 537.62L646.1 665.04" stroke="hsl(0, 0%, 100%)" stroke-width="1.5"></path><path d="M852.65 676L852.65 676" stroke="hsl(0, 0%, 100%)" stroke-width="1.5"></path><path d="M852.65 676L985.45 666.27" stroke="hsl(0, 0%, 100%)" stroke-width="1.5"></path><path d="M852.65 676L815.04 527.69" stroke="hsl(0, 0%, 100%)" stroke-width="1.5"></path><path d="M852.65 676L995.35 547.82" stroke="hsl(0, 0%, 100%)" stroke-width="1.5"></path><path d="M852.65 676L646.1 665.04" stroke="hsl(0, 0%, 100%)" stroke-width="1.5"></path><path d="M852.65 676L686.49 504.73" stroke="hsl(0, 0%, 100%)" stroke-width="1.5"></path><path d="M852.65 676L817.84 386.47" stroke="hsl(0, 0%, 100%)" stroke-width="1.5"></path><path d="M1147.24 73.77L1147.24 73.77" stroke="hsl(0, 0%, 100%)" stroke-width="1.5"></path><path d="M1147.24 73.77L1300.96 84.51" stroke="hsl(0, 0%, 100%)" stroke-width="1.5"></path><path d="M1147.24 73.77L1154 248.91" stroke="hsl(0, 0%, 100%)" stroke-width="1.5"></path><path d="M1147.1 669.05L1147.1 669.05" stroke="hsl(0, 0%, 100%)" stroke-width="1.5"></path><path d="M1147.1 669.05L985.45 666.27" stroke="hsl(0, 0%, 100%)" stroke-width="1.5"></path><path d="M1147.1 669.05L1312.02 672.43" stroke="hsl(0, 0%, 100%)" stroke-width="1.5"></path><path d="M1147.1 669.05L1120.9 502.21" stroke="hsl(0, 0%, 100%)" stroke-width="1.5"></path><path d="M1147.1 669.05L995.35 547.82" stroke="hsl(0, 0%, 100%)" stroke-width="1.5"></path><path d="M1300.96 84.51L1300.96 84.51" stroke="hsl(0, 0%, 100%)" stroke-width="1.5"></path><path d="M1300.96 84.51L1421.46 108.93" stroke="hsl(0, 0%, 100%)" stroke-width="1.5"></path><path d="M1300.96 84.51L1309.78 227.34" stroke="hsl(0, 0%, 100%)" stroke-width="1.5"></path><path d="M1312.02 672.43L1312.02 672.43" stroke="hsl(0, 0%, 100%)" stroke-width="1.5"></path><path d="M1312.02 672.43L1417.81 711.95" stroke="hsl(0, 0%, 100%)" stroke-width="1.5"></path><path d="M1312.02 672.43L1455.23 560.31" stroke="hsl(0, 0%, 100%)" stroke-width="1.5"></path><path d="M1312.02 672.43L1120.9 502.21" stroke="hsl(0, 0%, 100%)" stroke-width="1.5"></path><path d="M1312.02 672.43L1594.02 690.68" stroke="hsl(0, 0%, 100%)" stroke-width="1.5"></path><path d="M1312.02 672.43L1421.89 407.62" stroke="hsl(0, 0%, 100%)" stroke-width="1.5"></path><path d="M1594.02 690.68L1594.02 690.68" stroke="hsl(0, 0%, 100%)" stroke-width="1.5"></path><path d="M1594.02 690.68L1417.81 711.95" stroke="hsl(0, 0%, 100%)" stroke-width="1.5"></path><path d="M1594.02 690.68L1455.23 560.31" stroke="hsl(0, 0%, 100%)" stroke-width="1.5"></path><path d="M-63.66 518.18L-63.66 518.18" stroke="hsl(0, 0%, 100%)" stroke-width="1.5"></path><path d="M-63.66 518.18L74.27 546.68" stroke="hsl(0, 0%, 100%)" stroke-width="1.5"></path><path d="M-63.66 518.18L-58.68 676.86" stroke="hsl(0, 0%, 100%)" stroke-width="1.5"></path><path d="M-63.66 518.18L66.97 685" stroke="hsl(0, 0%, 100%)" stroke-width="1.5"></path><path d="M-63.66 518.18L237.33 506.18" stroke="hsl(0, 0%, 100%)" stroke-width="1.5"></path><path d="M-63.66 518.18L232.48 639.75" stroke="hsl(0, 0%, 100%)" stroke-width="1.5"></path><path d="M-63.66 518.18L241.28 392.29" stroke="hsl(0, 0%, 100%)" stroke-width="1.5"></path><path d="M-58.68 676.86L-58.68 676.86" stroke="hsl(0, 0%, 100%)" stroke-width="1.5"></path><path d="M-58.68 676.86L66.97 685" stroke="hsl(0, 0%, 100%)" stroke-width="1.5"></path><path d="M74.27 546.68L74.27 546.68" stroke="hsl(0, 0%, 100%)" stroke-width="1.5"></path><path d="M74.27 546.68L66.97 685" stroke="hsl(0, 0%, 100%)" stroke-width="1.5"></path><path d="M74.27 546.68L237.33 506.18" stroke="hsl(0, 0%, 100%)" stroke-width="1.5"></path><path d="M66.97 685L66.97 685" stroke="hsl(0, 0%, 100%)" stroke-width="1.5"></path><path d="M241.28 392.29L241.28 392.29" stroke="hsl(0, 0%, 100%)" stroke-width="1.5"></path><path d="M241.28 392.29L237.33 506.18" stroke="hsl(0, 0%, 100%)" stroke-width="1.5"></path><path d="M241.28 392.29L364.63 549.4" stroke="hsl(0, 0%, 100%)" stroke-width="1.5"></path><path d="M241.28 392.29L74.27 546.68" stroke="hsl(0, 0%, 100%)" stroke-width="1.5"></path><path d="M241.28 392.29L232.48 639.75" stroke="hsl(0, 0%, 100%)" stroke-width="1.5"></path><path d="M241.28 392.29L522.07 387.64" stroke="hsl(0, 0%, 100%)" stroke-width="1.5"></path><path d="M237.33 506.18L237.33 506.18" stroke="hsl(0, 0%, 100%)" stroke-width="1.5"></path><path d="M237.33 506.18L232.48 639.75" stroke="hsl(0, 0%, 100%)" stroke-width="1.5"></path><path d="M232.48 639.75L232.48 639.75" stroke="hsl(0, 0%, 100%)" stroke-width="1.5"></path><path d="M232.48 639.75L66.97 685" stroke="hsl(0, 0%, 100%)" stroke-width="1.5"></path><path d="M232.48 639.75L74.27 546.68" stroke="hsl(0, 0%, 100%)" stroke-width="1.5"></path><path d="M522.07 387.64L522.07 387.64" stroke="hsl(0, 0%, 100%)" stroke-width="1.5"></path><path d="M554.83 654.93L554.83 654.93" stroke="hsl(0, 0%, 100%)" stroke-width="1.5"></path><path d="M554.83 654.93L646.1 665.04" stroke="hsl(0, 0%, 100%)" stroke-width="1.5"></path><path d="M699.29 403.35L699.29 403.35" stroke="hsl(0, 0%, 100%)" stroke-width="1.5"></path><path d="M699.29 403.35L686.49 504.73" stroke="hsl(0, 0%, 100%)" stroke-width="1.5"></path><path d="M699.29 403.35L817.84 386.47" stroke="hsl(0, 0%, 100%)" stroke-width="1.5"></path><path d="M699.29 403.35L815.04 527.69" stroke="hsl(0, 0%, 100%)" stroke-width="1.5"></path><path d="M699.29 403.35L522.07 387.64" stroke="hsl(0, 0%, 100%)" stroke-width="1.5"></path><path d="M699.29 403.35L558.09 537.62" stroke="hsl(0, 0%, 100%)" stroke-width="1.5"></path><path d="M686.49 504.73L686.49 504.73" stroke="hsl(0, 0%, 100%)" stroke-width="1.5"></path><path d="M686.49 504.73L815.04 527.69" stroke="hsl(0, 0%, 100%)" stroke-width="1.5"></path><path d="M646.1 665.04L646.1 665.04" stroke="hsl(0, 0%, 100%)" stroke-width="1.5"></path><path d="M646.1 665.04L686.49 504.73" stroke="hsl(0, 0%, 100%)" stroke-width="1.5"></path><path d="M817.84 386.47L817.84 386.47" stroke="hsl(0, 0%, 100%)" stroke-width="1.5"></path><path d="M817.84 386.47L815.04 527.69" stroke="hsl(0, 0%, 100%)" stroke-width="1.5"></path><path d="M817.84 386.47L954.73 339.95" stroke="hsl(0, 0%, 100%)" stroke-width="1.5"></path><path d="M817.84 386.47L686.49 504.73" stroke="hsl(0, 0%, 100%)" stroke-width="1.5"></path><path d="M815.04 527.69L815.04 527.69" stroke="hsl(0, 0%, 100%)" stroke-width="1.5"></path><path d="M954.73 339.95L954.73 339.95" stroke="hsl(0, 0%, 100%)" stroke-width="1.5"></path><path d="M954.73 339.95L1096.11 371.16" stroke="hsl(0, 0%, 100%)" stroke-width="1.5"></path><path d="M954.73 339.95L995.35 547.82" stroke="hsl(0, 0%, 100%)" stroke-width="1.5"></path><path d="M954.73 339.95L1154 248.91" stroke="hsl(0, 0%, 100%)" stroke-width="1.5"></path><path d="M995.35 547.82L995.35 547.82" stroke="hsl(0, 0%, 100%)" stroke-width="1.5"></path><path d="M995.35 547.82L985.45 666.27" stroke="hsl(0, 0%, 100%)" stroke-width="1.5"></path><path d="M995.35 547.82L1120.9 502.21" stroke="hsl(0, 0%, 100%)" stroke-width="1.5"></path><path d="M985.45 666.27L985.45 666.27" stroke="hsl(0, 0%, 100%)" stroke-width="1.5"></path><path d="M1154 248.91L1154 248.91" stroke="hsl(0, 0%, 100%)" stroke-width="1.5"></path><path d="M1154 248.91L1254.2 337.73" stroke="hsl(0, 0%, 100%)" stroke-width="1.5"></path><path d="M1154 248.91L1096.11 371.16" stroke="hsl(0, 0%, 100%)" stroke-width="1.5"></path><path d="M1154 248.91L1309.78 227.34" stroke="hsl(0, 0%, 100%)" stroke-width="1.5"></path><path d="M1096.11 371.16L1096.11 371.16" stroke="hsl(0, 0%, 100%)" stroke-width="1.5"></path><path d="M1096.11 371.16L1120.9 502.21" stroke="hsl(0, 0%, 100%)" stroke-width="1.5"></path><path d="M1096.11 371.16L1254.2 337.73" stroke="hsl(0, 0%, 100%)" stroke-width="1.5"></path><path d="M1096.11 371.16L995.35 547.82" stroke="hsl(0, 0%, 100%)" stroke-width="1.5"></path><path d="M1096.11 371.16L1309.78 227.34" stroke="hsl(0, 0%, 100%)" stroke-width="1.5"></path><path d="M1120.9 502.21L1120.9 502.21" stroke="hsl(0, 0%, 100%)" stroke-width="1.5"></path><path d="M1120.9 502.21L1254.2 337.73" stroke="hsl(0, 0%, 100%)" stroke-width="1.5"></path><path d="M1309.78 227.34L1309.78 227.34" stroke="hsl(0, 0%, 100%)" stroke-width="1.5"></path><path d="M1309.78 227.34L1398.62 261.52" stroke="hsl(0, 0%, 100%)" stroke-width="1.5"></path><path d="M1309.78 227.34L1254.2 337.73" stroke="hsl(0, 0%, 100%)" stroke-width="1.5"></path><path d="M1254.2 337.73L1254.2 337.73" stroke="hsl(0, 0%, 100%)" stroke-width="1.5"></path><path d="M1448.13 -69.44L1448.13 -69.44" stroke="hsl(0, 0%, 100%)" stroke-width="1.5"></path><path d="M1448.13 -69.44L1544.15 -94.54" stroke="hsl(0, 0%, 100%)" stroke-width="1.5"></path><path d="M1448.13 -69.44L1577.96 53.49" stroke="hsl(0, 0%, 100%)" stroke-width="1.5"></path><path d="M1448.13 -69.44L1421.46 108.93" stroke="hsl(0, 0%, 100%)" stroke-width="1.5"></path><path d="M1448.13 -69.44L1300.96 84.51" stroke="hsl(0, 0%, 100%)" stroke-width="1.5"></path><path d="M1421.46 108.93L1421.46 108.93" stroke="hsl(0, 0%, 100%)" stroke-width="1.5"></path><path d="M1421.46 108.93L1398.62 261.52" stroke="hsl(0, 0%, 100%)" stroke-width="1.5"></path><path d="M1398.62 261.52L1398.62 261.52" stroke="hsl(0, 0%, 100%)" stroke-width="1.5"></path><path d="M1398.62 261.52L1421.89 407.62" stroke="hsl(0, 0%, 100%)" stroke-width="1.5"></path><path d="M1398.62 261.52L1254.2 337.73" stroke="hsl(0, 0%, 100%)" stroke-width="1.5"></path><path d="M1421.89 407.62L1421.89 407.62" stroke="hsl(0, 0%, 100%)" stroke-width="1.5"></path><path d="M1421.89 407.62L1455.23 560.31" stroke="hsl(0, 0%, 100%)" stroke-width="1.5"></path><path d="M1421.89 407.62L1568.99 494.91" stroke="hsl(0, 0%, 100%)" stroke-width="1.5"></path><path d="M1421.89 407.62L1593.44 382.31" stroke="hsl(0, 0%, 100%)" stroke-width="1.5"></path><path d="M1421.89 407.62L1254.2 337.73" stroke="hsl(0, 0%, 100%)" stroke-width="1.5"></path><path d="M1455.23 560.31L1455.23 560.31" stroke="hsl(0, 0%, 100%)" stroke-width="1.5"></path><path d="M1455.23 560.31L1568.99 494.91" stroke="hsl(0, 0%, 100%)" stroke-width="1.5"></path><path d="M1455.23 560.31L1417.81 711.95" stroke="hsl(0, 0%, 100%)" stroke-width="1.5"></path><path d="M1455.23 560.31L1593.44 382.31" stroke="hsl(0, 0%, 100%)" stroke-width="1.5"></path><path d="M1417.81 711.95L1417.81 711.95" stroke="hsl(0, 0%, 100%)" stroke-width="1.5"></path><path d="M1417.81 711.95L1568.99 494.91" stroke="hsl(0, 0%, 100%)" stroke-width="1.5"></path><path d="M1417.81 711.95L1147.1 669.05" stroke="hsl(0, 0%, 100%)" stroke-width="1.5"></path><path d="M1544.15 -94.54L1544.15 -94.54" stroke="hsl(0, 0%, 100%)" stroke-width="1.5"></path><path d="M1544.15 -94.54L1577.96 53.49" stroke="hsl(0, 0%, 100%)" stroke-width="1.5"></path><path d="M1544.15 -94.54L1421.46 108.93" stroke="hsl(0, 0%, 100%)" stroke-width="1.5"></path><path d="M1544.15 -94.54L1300.96 84.51" stroke="hsl(0, 0%, 100%)" stroke-width="1.5"></path><path d="M1577.96 53.49L1577.96 53.49" stroke="hsl(0, 0%, 100%)" stroke-width="1.5"></path><path d="M1577.96 53.49L1421.46 108.93" stroke="hsl(0, 0%, 100%)" stroke-width="1.5"></path><path d="M1605.76 252.85L1605.76 252.85" stroke="hsl(0, 0%, 100%)" stroke-width="1.5"></path><path d="M1605.76 252.85L1593.44 382.31" stroke="hsl(0, 0%, 100%)" stroke-width="1.5"></path><path d="M1605.76 252.85L1577.96 53.49" stroke="hsl(0, 0%, 100%)" stroke-width="1.5"></path><path d="M1605.76 252.85L1398.62 261.52" stroke="hsl(0, 0%, 100%)" stroke-width="1.5"></path><path d="M1605.76 252.85L1421.46 108.93" stroke="hsl(0, 0%, 100%)" stroke-width="1.5"></path><path d="M1605.76 252.85L1421.89 407.62" stroke="hsl(0, 0%, 100%)" stroke-width="1.5"></path><path d="M1593.44 382.31L1593.44 382.31" stroke="hsl(0, 0%, 100%)" stroke-width="1.5"></path><path d="M1593.44 382.31L1568.99 494.91" stroke="hsl(0, 0%, 100%)" stroke-width="1.5"></path><path d="M1593.44 382.31L1398.62 261.52" stroke="hsl(0, 0%, 100%)" stroke-width="1.5"></path><path d="M1593.44 382.31L1594.02 690.68" stroke="hsl(0, 0%, 100%)" stroke-width="1.5"></path><path d="M1568.99 494.91L1568.99 494.91" stroke="hsl(0, 0%, 100%)" stroke-width="1.5"></path><circle r="25" cx="364.63" cy="549.4" fill="url(#SvgjsRadialGradient1017)"></circle><circle r="25" cx="390.72" cy="683.19" fill="url(#SvgjsRadialGradient1017)"></circle><circle r="25" cx="558.09" cy="537.62" fill="url(#SvgjsRadialGradient1017)"></circle><circle r="25" cx="852.65" cy="676" fill="url(#SvgjsRadialGradient1017)"></circle><circle r="25" cx="1147.24" cy="73.77" fill="url(#SvgjsRadialGradient1017)"></circle><circle r="25" cx="1147.1" cy="669.05" fill="url(#SvgjsRadialGradient1017)"></circle><circle r="25" cx="1300.96" cy="84.51" fill="url(#SvgjsRadialGradient1017)"></circle><circle r="25" cx="1312.02" cy="672.43" fill="url(#SvgjsRadialGradient1017)"></circle><circle r="25" cx="1594.02" cy="690.68" fill="url(#SvgjsRadialGradient1017)"></circle><circle r="5" cx="-63.66" cy="518.18" fill="#e4e4e4"></circle><circle r="5" cx="-58.68" cy="676.86" fill="#e4e4e4"></circle><circle r="5" cx="74.27" cy="546.68" fill="#e4e4e4"></circle><circle r="5" cx="66.97" cy="685" fill="#e4e4e4"></circle><circle r="5" cx="241.28" cy="392.29" fill="#e4e4e4"></circle><circle r="5" cx="237.33" cy="506.18" fill="#e4e4e4"></circle><circle r="5" cx="232.48" cy="639.75" fill="#e4e4e4"></circle><circle r="5" cx="522.07" cy="387.64" fill="#e4e4e4"></circle><circle r="5" cx="554.83" cy="654.93" fill="#e4e4e4"></circle><circle r="5" cx="699.29" cy="403.35" fill="#e4e4e4"></circle><circle r="5" cx="686.49" cy="504.73" fill="#e4e4e4"></circle><circle r="5" cx="646.1" cy="665.04" fill="#e4e4e4"></circle><circle r="5" cx="817.84" cy="386.47" fill="#e4e4e4"></circle><circle r="5" cx="815.04" cy="527.69" fill="#e4e4e4"></circle><circle r="5" cx="954.73" cy="339.95" fill="#e4e4e4"></circle><circle r="5" cx="995.35" cy="547.82" fill="#e4e4e4"></circle><circle r="5" cx="985.45" cy="666.27" fill="#e4e4e4"></circle><circle r="5" cx="1154" cy="248.91" fill="#e4e4e4"></circle><circle r="5" cx="1096.11" cy="371.16" fill="#e4e4e4"></circle><circle r="5" cx="1120.9" cy="502.21" fill="#e4e4e4"></circle><circle r="5" cx="1309.78" cy="227.34" fill="#e4e4e4"></circle><circle r="5" cx="1254.2" cy="337.73" fill="#e4e4e4"></circle><circle r="5" cx="1448.13" cy="-69.44" fill="#e4e4e4"></circle><circle r="5" cx="1421.46" cy="108.93" fill="#e4e4e4"></circle><circle r="5" cx="1398.62" cy="261.52" fill="#e4e4e4"></circle><circle r="5" cx="1421.89" cy="407.62" fill="#e4e4e4"></circle><circle r="5" cx="1455.23" cy="560.31" fill="#e4e4e4"></circle><circle r="5" cx="1417.81" cy="711.95" fill="#e4e4e4"></circle><circle r="5" cx="1544.15" cy="-94.54" fill="#e4e4e4"></circle><circle r="5" cx="1577.96" cy="53.49" fill="#e4e4e4"></circle><circle r="5" cx="1605.76" cy="252.85" fill="#e4e4e4"></circle><circle r="5" cx="1593.44" cy="382.31" fill="#e4e4e4"></circle><circle r="5" cx="1568.99" cy="494.91" fill="#e4e4e4"></circle></g><defs><mask id="SvgjsMask1015"><rect width="1400" height="500" fill="#ffffff"></rect></mask><linearGradient x1="0%" y1="50%" x2="100%" y2="50%" gradientUnits="userSpaceOnUse" id="SvgjsLinearGradient1016"><stop stop-color="rgba(7, 31, 50, 1)" offset="0.41"></stop><stop stop-color="rgba(61, 103, 255, 1)" offset="1"></stop></linearGradient><radialGradient id="SvgjsRadialGradient1017"><stop stop-color="#ffffff" offset="0.1"></stop><stop stop-color="rgba(200, 200, 200, 1)" offset="0.2"></stop><stop stop-color="rgba(200, 200, 200, 0)" offset="1"></stop></radialGradient></defs></svg>