<svg xmlns="http://www.w3.org/2000/svg" version="1.1" xmlns:xlink="http://www.w3.org/1999/xlink" xmlns:svgjs="http://svgjs.com/svgjs" width="1440" height="600" preserveAspectRatio="none" viewBox="0 0 1440 600"><g mask="url(&quot;#SvgjsMask1008&quot;)" fill="none"><rect width="1440" height="600" x="0" y="0" fill="#0e2a47"></rect><path d="M-134.75 375.82C-1.77 374.91 114.54 247.43 382.06 249.82 649.58 252.21 736.62 630.05 898.87 652.93" stroke="rgba(51,121,194,0.58)" stroke-width="2"></path><path d="M-74.88 315.86C72 310.04 179.55 66.06 459.17 69.86 738.78 73.66 803.32 596.47 993.21 648.06" stroke="rgba(51,121,194,0.58)" stroke-width="2"></path><path d="M-58.22 516.48C90.57 509.41 204.85 251.79 475.96 252.48 747.06 253.17 837.88 673.82 1010.13 702.44" stroke="rgba(51,121,194,0.58)" stroke-width="2"></path><path d="M-162.35 283.47C3.03 286 137.05 482.79 467 487.47 796.96 492.15 931.77 678.71 1096.36 680.87" stroke="rgba(51,121,194,0.58)" stroke-width="2"></path><path d="M-233.88 67.05C-132.29 67.37-34.19 142.05 165.49 142.05 365.18 142.05 332.41 48.91 564.87 67.05 797.32 85.19 806.21 557.6 964.24 623.56" stroke="rgba(51,121,194,0.58)" stroke-width="2"></path></g><defs><mask id="SvgjsMask1008"><rect width="1440" height="600" fill="#ffffff"></rect></mask></defs></svg>