<svg xmlns="http://www.w3.org/2000/svg" version="1.1" xmlns:xlink="http://www.w3.org/1999/xlink" xmlns:svgjs="http://svgjs.com/svgjs" width="1440" height="560" preserveAspectRatio="none" viewBox="0 0 1440 560"><g mask="url(&quot;#SvgjsMask1001&quot;)" fill="none"><rect width="1440" height="560" x="0" y="0" fill="rgba(0, 49, 171, 1)"></rect><path d="M0,585.242C108.039,579.655,202.173,512.364,283.236,440.724C356.133,376.3,401.737,290.213,436.602,199.39C469.711,113.141,492.391,22.54,478.849,-68.848C465.342,-160,416.662,-239.345,360.736,-312.58C301.767,-389.799,241.311,-477.026,147.587,-502.634C54.271,-528.131,-38.011,-472.773,-131.253,-447.006C-226.203,-420.767,-332.597,-417.911,-404.121,-350.173C-478.171,-280.043,-513.384,-176.763,-523.732,-75.301C-533.836,23.772,-498.67,118.361,-461.322,210.679C-422.424,306.829,-383.231,405.648,-302.71,471.026C-217.255,540.41,-109.929,590.927,0,585.242" fill="#00206f"></path><path d="M1440 856.325C1501.997 859.2719999999999 1569.32 876.018 1621.953 843.124 1674.7069999999999 810.155 1680.733 737.706 1713.9560000000001 685.111 1753.882 621.905 1846.771 577.04 1836.837 502.943 1826.93 429.041 1715.54 419.701 1670.417 360.342 1620.334 294.458 1636.058 180.493 1562.658 142.264 1491.164 105.029 1406.035 158.272 1329.193 182.62599999999998 1253.9569999999999 206.471 1172.504 223.79500000000002 1119.864 282.6 1066.893 341.774 1052.507 424.062 1042.534 502.853 1032.6970000000001 580.568 1018.053 668.003 1062.9569999999999 732.19 1107.108 795.3009999999999 1195.6779999999999 802.251 1268.836 826.337 1324.992 844.825 1380.946 853.517 1440 856.325" fill="#0042e7"></path></g><defs><mask id="SvgjsMask1001"><rect width="1440" height="560" fill="#ffffff"></rect></mask></defs></svg>