<?xml version="1.0" encoding="UTF-8" standalone="no"?>
<svg xmlns="http://www.w3.org/2000/svg" version="1.2" baseProfile="tiny" viewBox="0.00 0.00 36.00 36.00">
<g stroke-width="2.00" fill="none" stroke-linecap="butt">
<path stroke="#9d5694" vector-effect="non-scaling-stroke" d="
  M 21.79 10.75
  Q 23.44 9.93 25.44 10.33
  Q 26.19 10.48 26.21 9.72
  L 26.26 6.42
  Q 26.27 5.75 25.60 5.75
  L 22.28 5.75
  Q 21.79 5.75 21.78 6.24
  L 21.71 10.25"
/>
<path stroke="#ffa295" vector-effect="non-scaling-stroke" d="
  M 21.71 10.25
  L 17.42 10.22
  Q 17.01 10.22 17.01 9.81
  L 16.99 5.40
  Q 16.99 4.75 16.34 4.75
  L 11.88 4.75
  Q 11.25 4.75 11.25 5.38
  L 11.25 31.12
  Q 11.25 31.75 11.88 31.75
  L 26.25 31.75
  Q 27.00 31.75 27.00 31.00
  L 27.00 27.75
  Q 27.00 27.00 26.25 27.00
  L 17.44 27.00
  Q 16.94 27.00 16.94 26.50
  L 16.96 15.61
  A 0.86 0.85 90.0 0 0 16.11 14.75
  L 13.13 14.75
  Q 12.50 14.75 12.50 14.12
  L 12.50 11.00
  Q 12.50 10.25 13.25 10.25
  L 16.25 10.25
  Q 16.93 10.25 16.95 10.93
  L 17.02 14.27
  Q 17.04 14.75 17.52 14.75
  L 21.24 14.75
  Q 21.73 14.75 21.74 14.25
  L 21.79 10.75"
/>
<path stroke="#9db3ff" vector-effect="non-scaling-stroke" d="
  M 21.71 10.25
  L 21.79 10.75"
/>
</g>
<path fill="#ff442a" d="
  M 17.06 0.00
  L 19.31 0.00
  Q 33.70 2.22 36.00 16.56
  L 36.00 19.56
  C 34.13 31.00 23.20 38.95 11.97 34.76
  C -6.44 27.88 -2.19 2.39 17.06 0.00
  Z
  M 21.79 10.75
  Q 23.44 9.93 25.44 10.33
  Q 26.19 10.48 26.21 9.72
  L 26.26 6.42
  Q 26.27 5.75 25.60 5.75
  L 22.28 5.75
  Q 21.79 5.75 21.78 6.24
  L 21.71 10.25
  L 17.42 10.22
  Q 17.01 10.22 17.01 9.81
  L 16.99 5.40
  Q 16.99 4.75 16.34 4.75
  L 11.88 4.75
  Q 11.25 4.75 11.25 5.38
  L 11.25 31.12
  Q 11.25 31.75 11.88 31.75
  L 26.25 31.75
  Q 27.00 31.75 27.00 31.00
  L 27.00 27.75
  Q 27.00 27.00 26.25 27.00
  L 17.44 27.00
  Q 16.94 27.00 16.94 26.50
  L 16.96 15.61
  A 0.86 0.85 90.0 0 0 16.11 14.75
  L 13.13 14.75
  Q 12.50 14.75 12.50 14.12
  L 12.50 11.00
  Q 12.50 10.25 13.25 10.25
  L 16.25 10.25
  Q 16.93 10.25 16.95 10.93
  L 17.02 14.27
  Q 17.04 14.75 17.52 14.75
  L 21.24 14.75
  Q 21.73 14.75 21.74 14.25
  L 21.79 10.75
  Z"
/>
<path fill="#ffffff" d="
  M 21.71 10.25
  L 21.79 10.75
  L 21.74 14.25
  Q 21.73 14.75 21.24 14.75
  L 17.52 14.75
  Q 17.04 14.75 17.02 14.27
  L 16.95 10.93
  Q 16.93 10.25 16.25 10.25
  L 13.25 10.25
  Q 12.50 10.25 12.50 11.00
  L 12.50 14.12
  Q 12.50 14.75 13.13 14.75
  L 16.11 14.75
  A 0.86 0.85 90.0 0 1 16.96 15.61
  L 16.94 26.50
  Q 16.94 27.00 17.44 27.00
  L 26.25 27.00
  Q 27.00 27.00 27.00 27.75
  L 27.00 31.00
  Q 27.00 31.75 26.25 31.75
  L 11.88 31.75
  Q 11.25 31.75 11.25 31.12
  L 11.25 5.38
  Q 11.25 4.75 11.88 4.75
  L 16.34 4.75
  Q 16.99 4.75 16.99 5.40
  L 17.01 9.81
  Q 17.01 10.22 17.42 10.22
  L 21.71 10.25
  Z"
/>
<path fill="#3b67fe" d="
  M 21.79 10.75
  L 21.71 10.25
  L 21.78 6.24
  Q 21.79 5.75 22.28 5.75
  L 25.60 5.75
  Q 26.27 5.75 26.26 6.42
  L 26.21 9.72
  Q 26.19 10.48 25.44 10.33
  Q 23.44 9.93 21.79 10.75
  Z"
/>
</svg>
