<?xml version="1.0" encoding="UTF-8" standalone="no"?>
<svg xmlns="http://www.w3.org/2000/svg" version="1.2" baseProfile="tiny" viewBox="0.00 0.00 100.00 33.00">
<g stroke-width="2.00" fill="none" stroke-linecap="butt">
<path stroke="#ef9588" stroke-opacity="0.961" vector-effect="non-scaling-stroke" d="
  M 43.04 9.00
  L 42.75 9.29"
/>
<path stroke="#6d2570" stroke-opacity="0.961" vector-effect="non-scaling-stroke" d="
  M 46.71 10.25
  L 46.46 9.25"
/>
</g>
<path fill="#ffffff" d="
  M 43.04 9.00
  L 42.75 9.29
  L 39.92 9.27
  Q 39.25 9.26 39.25 9.93
  L 39.25 12.00
  Q 39.25 12.75 40.00 12.75
  L 42.46 12.75
  Q 42.97 12.75 42.98 13.26
  C 43.02 15.23 42.33 21.52 43.98 22.81
  Q 44.44 23.16 45.00 23.03
  L 46.80 22.59
  Q 47.38 22.45 47.55 23.01
  L 48.26 25.39
  Q 48.40 25.85 47.93 25.98
  C 36.61 29.06 38.53 20.53 38.48 13.42
  Q 38.47 12.75 37.80 12.75
  L 36.87 12.75
  Q 36.23 12.75 36.24 12.12
  L 36.27 10.41
  Q 36.28 9.73 36.95 9.61
  C 40.79 8.93 37.83 4.24 42.48 5.01
  Q 42.98 5.09 42.99 5.60
  L 43.04 9.00
  Z"
/>
<path fill="#ffffff" d="
  M 10.29 22.75
  L 17.21 22.75
  A 0.54 0.54 0.0 0 1 17.75 23.29
  L 17.75 25.96
  A 0.54 0.54 0.0 0 1 17.21 26.50
  L 5.79 26.50
  A 0.54 0.54 0.0 0 1 5.25 25.96
  L 5.25 5.79
  A 0.54 0.54 0.0 0 1 5.79 5.25
  L 9.21 5.25
  A 0.54 0.54 0.0 0 1 9.75 5.79
  L 9.75 22.21
  A 0.54 0.54 0.0 0 0 10.29 22.75
  Z"
/>
<path fill="#0527d2" fill-opacity="0.996" d="
  M 46.71 10.25
  L 46.46 9.25
  Q 47.37 8.21 46.87 6.47
  Q 46.67 5.77 47.40 5.77
  L 49.87 5.74
  Q 50.50 5.74 50.50 6.37
  L 50.50 8.27
  Q 50.50 8.82 49.98 9.03
  C 48.99 9.43 46.66 8.75 46.71 10.25
  Z"
/>
<path fill="#dd2207" fill-opacity="0.922" d="
  M 43.04 9.00
  L 46.46 9.25
  L 46.71 10.25
  L 46.70 12.10
  Q 46.70 12.75 46.04 12.75
  L 43.77 12.75
  Q 43.28 12.75 43.21 12.27
  L 42.75 9.29
  L 43.04 9.00
  Z"
/>
<path fill="#ffffff" d="
  M 53.22 19.57
  C 53.65 24.08 57.90 23.63 60.92 22.04
  Q 61.40 21.79 61.70 22.24
  L 63.18 24.55
  Q 63.49 25.03 62.98 25.31
  C 58.24 27.87 50.67 27.67 49.10 21.42
  C 45.28 6.29 66.01 4.19 63.60 18.49
  Q 63.51 19.00 63.00 19.00
  L 53.75 19.00
  Q 53.17 19.00 53.22 19.57
  Z
  M 53.71 16.04
  L 59.25 15.94
  A 0.30 0.30 0.0 0 0 59.54 15.64
  L 59.54 15.44
  A 3.01 3.00 -1.0 0 0 56.48 12.49
  L 56.36 12.49
  A 3.01 3.00 -1.0 0 0 53.40 15.54
  L 53.41 15.74
  A 0.30 0.30 0.0 0 0 53.71 16.04
  Z"
/>
<path fill="#ffffff" d="
  M 78.65 10.31
  Q 79.97 10.91 78.95 11.93
  L 76.91 13.96
  Q 76.46 14.42 75.97 14.01
  C 69.94 9.04 69.69 18.62 70.92 21.69
  Q 71.13 22.19 71.60 22.45
  Q 74.09 23.84 76.12 21.73
  Q 76.45 21.39 76.80 21.71
  L 79.00 23.78
  Q 79.45 24.20 79.01 24.64
  C 74.42 29.17 66.61 26.87 65.51 20.78
  C 63.91 12.00 69.80 6.30 78.65 10.31
  Z"
/>
<path fill="#ffffff" d="
  M 84.51 20.12
  Q 87.01 25.30 92.26 22.03
  Q 92.78 21.71 93.10 22.23
  L 94.49 24.49
  Q 94.88 25.14 94.21 25.47
  C 78.76 33.01 75.23 11.30 86.21 9.10
  C 92.43 7.86 96.41 12.29 95.02 18.57
  Q 94.93 19.00 94.48 19.00
  L 85.21 19.00
  A 0.78 0.78 0.0 0 0 84.51 20.12
  Z
  M 85.22 16.04
  L 90.50 15.93
  A 0.35 0.35 0.0 0 0 90.84 15.58
  L 90.83 15.34
  A 2.91 2.82 88.8 0 0 87.95 12.49
  L 87.61 12.49
  A 2.91 2.82 88.8 0 0 84.85 15.46
  L 84.86 15.70
  A 0.35 0.35 0.0 0 0 85.22 16.04
  Z"
/>
<path fill="#ffffff" d="
  M 28.66 25.24
  C 25.92 27.30 21.89 27.55 20.03 24.66
  C 18.17 21.78 19.00 13.74 19.00 10.02
  Q 19.00 9.54 19.48 9.52
  L 22.90 9.44
  Q 23.44 9.43 23.45 9.98
  Q 23.58 15.14 23.55 20.24
  C 23.53 24.77 29.26 24.12 29.25 19.99
  Q 29.24 15.00 29.26 10.01
  Q 29.26 9.54 29.73 9.52
  L 33.12 9.45
  Q 33.75 9.43 33.75 10.06
  L 33.75 25.56
  Q 33.75 26.02 33.34 26.21
  Q 30.71 27.49 29.32 25.36
  Q 29.05 24.95 28.66 25.24
  Z"
/>
</svg>
