<?xml version="1.0" encoding="UTF-8" standalone="no"?>
<!DOCTYPE svg PUBLIC "-//W3C//DTD SVG 1.1//EN" "http://www.w3.org/Graphics/SVG/1.1/DTD/svg11.dtd">
<svg xmlns="http://www.w3.org/2000/svg" version="1.1" viewBox="0.00 0.00 670.00 226.00">
<g stroke-width="2.00" fill="none" stroke-linecap="butt">
<path stroke="#913225" vector-effect="non-scaling-stroke" d="
  M 291.75 61.96
  L 290.46 62.75"
/>
<path stroke="#913225" vector-effect="non-scaling-stroke" d="
  M 290.46 86.25
  Q 290.64 87.25 291.75 87.04"
/>
<path stroke="#9e5695" vector-effect="non-scaling-stroke" d="
  M 317.25 62.79
  L 316.46 61.75"
/>
</g>
<path fill="#231f20" d="
  M 291.75 61.96
  L 290.46 62.75
  L 266.54 62.59
  A 0.55 0.55 0.0 0 0 265.98 63.15
  L 265.99 85.84
  Q 265.99 86.41 266.55 86.40
  L 290.46 86.25
  Q 290.64 87.25 291.75 87.04
  Q 291.49 88.15 291.50 89.31
  Q 291.63 115.94 291.50 142.58
  Q 291.47 148.62 292.89 151.16
  C 297.91 160.20 312.45 156.25 319.29 151.71
  A 0.65 0.64 63.7 0 1 320.26 152.04
  L 328.06 174.68
  Q 328.33 175.47 327.61 175.91
  C 316.98 182.28 302.53 183.13 291.53 182.79
  C 276.98 182.33 266.41 174.40 261.94 160.95
  Q 259.81 154.51 259.79 149.69
  Q 259.71 118.48 259.76 87.26
  A 0.50 0.50 0.0 0 0 259.26 86.75
  L 245.00 86.75
  Q 244.50 86.75 244.50 86.25
  L 244.50 67.28
  A 0.86 0.85 -11.4 0 1 245.03 66.49
  Q 252.02 63.52 259.05 60.78
  C 260.54 60.21 269.22 36.43 270.49 33.19
  Q 270.74 32.57 271.40 32.57
  L 290.11 32.56
  Q 291.57 32.55 291.58 34.02
  L 291.75 61.96
  Z"
/>
<path fill="#231f20" d="
  M 119.75 155.30
  L 119.75 181.36
  A 0.55 0.55 0.0 0 1 119.20 181.91
  L 33.80 181.71
  A 0.55 0.55 0.0 0 1 33.25 181.16
  L 33.25 34.05
  A 0.55 0.55 0.0 0 1 33.80 33.50
  L 64.95 33.50
  A 0.55 0.55 0.0 0 1 65.50 34.05
  L 65.49 154.20
  A 0.55 0.55 0.0 0 0 66.04 154.75
  L 119.20 154.75
  A 0.55 0.55 0.0 0 1 119.75 155.30
  Z"
/>
<path fill="#3c67ff" d="
  M 317.25 62.79
  L 316.46 61.75
  Q 316.40 61.27 316.52 60.80
  Q 316.62 60.39 316.61 59.97
  L 316.45 37.43
  Q 316.45 36.75 317.13 36.75
  L 341.75 36.75
  A 0.75 0.75 0.0 0 1 342.50 37.50
  L 342.50 62.00
  Q 342.50 62.55 341.95 62.56
  L 317.25 62.79
  Z"
/>
<path fill="#231f20" d="
  M 370.50 61.48
  C 396.88 55.57 425.76 65.57 431.58 94.95
  C 433.80 106.17 433.17 117.75 431.72 129.14
  Q 431.61 130.00 430.75 130.00
  L 361.19 130.00
  Q 360.52 130.00 360.52 130.67
  C 360.59 163.37 396.37 165.22 415.32 148.34
  Q 415.75 147.95 416.05 148.44
  L 429.39 170.09
  A 0.93 0.92 55.3 0 1 429.17 171.31
  Q 414.86 182.34 396.56 183.57
  C 384.83 184.37 371.24 184.47 358.65 178.97
  C 341.73 171.59 333.15 157.14 330.34 139.18
  C 325.25 106.67 333.65 69.75 370.50 61.48
  Z
  M 402.81 107.87
  C 405.60 73.51 361.40 79.09 361.30 107.56
  Q 361.30 108.50 362.25 108.51
  L 402.09 108.54
  A 0.72 0.72 0.0 0 0 402.81 107.87
  Z"
/>
<path fill="#231f20" d="
  M 446.48 97.00
  C 455.38 65.63 486.80 54.61 516.01 62.21
  Q 529.83 65.80 538.81 76.52
  A 1.22 1.21 48.6 0 1 538.71 78.18
  L 518.45 97.43
  Q 517.94 97.91 517.53 97.33
  Q 508.38 84.23 493.31 86.90
  C 473.29 90.45 474.57 120.43 476.67 134.82
  C 478.36 146.43 483.69 157.07 496.85 157.57
  Q 509.53 158.05 517.67 146.84
  Q 518.24 146.04 518.96 146.71
  L 538.32 164.65
  Q 538.69 165.00 538.38 165.40
  Q 525.41 181.88 504.24 183.45
  C 488.38 184.63 472.82 183.83 460.36 173.20
  C 440.46 156.22 440.03 119.72 446.48 97.00
  Z"
/>
<path fill="#231f20" d="
  M 574.72 135.79
  C 575.80 146.76 581.90 154.97 592.74 157.51
  Q 612.48 162.13 628.74 148.79
  Q 629.51 148.15 630.03 149.00
  L 642.73 169.54
  Q 643.56 170.88 642.29 171.81
  Q 627.59 182.50 610.05 183.58
  C 603.27 184.00 592.85 184.23 585.63 182.98
  Q 549.94 176.78 543.96 139.01
  C 538.73 106.00 548.01 67.91 586.33 61.10
  C 611.26 56.68 637.54 65.27 644.56 91.96
  C 647.35 102.56 646.52 116.96 645.52 128.85
  A 1.27 1.26 -87.5 0 1 644.26 130.01
  L 574.72 129.98
  A 0.69 0.69 0.0 0 0 574.04 130.79
  Q 574.46 133.07 574.72 135.79
  Z
  M 616.34 105.44
  C 616.75 93.72 611.75 85.00 599.12 84.44
  C 583.45 83.74 576.85 93.58 574.75 108.02
  Q 574.68 108.50 575.17 108.50
  L 615.93 108.52
  A 0.53 0.53 0.0 0 0 616.45 108.09
  C 616.64 107.14 616.31 106.27 616.34 105.44
  Z"
/>
<path fill="#ff442a" d="
  M 316.46 61.75
  L 317.25 62.79
  L 317.07 86.45
  Q 317.07 86.97 316.54 86.98
  L 291.75 87.04
  Q 290.64 87.25 290.46 86.25
  L 290.46 62.75
  L 291.75 61.96
  L 316.46 61.75
  Z"
/>
<path fill="#231f20" d="
  M 227.95 62.22
  A 0.55 0.55 0.0 0 1 228.50 62.77
  L 228.50 181.27
  Q 228.50 181.72 228.06 181.73
  L 202.05 181.95
  Q 201.43 181.96 201.21 181.39
  L 197.07 170.92
  A 0.43 0.43 0.0 0 0 196.35 170.80
  C 186.09 183.05 174.06 184.23 159.03 183.69
  C 138.49 182.95 127.11 166.97 127.05 147.44
  Q 126.94 105.85 127.01 63.13
  A 0.71 0.71 0.0 0 1 127.73 62.42
  L 158.77 62.54
  Q 159.25 62.54 159.25 63.02
  Q 159.24 102.78 159.28 142.48
  Q 159.29 152.34 166.48 156.58
  C 176.79 162.65 189.95 157.69 195.37 147.13
  Q 196.49 144.96 196.49 142.04
  Q 196.51 102.56 196.50 62.99
  A 0.54 0.53 90.0 0 1 197.03 62.45
  L 227.95 62.22
  Z"
/>
</svg>
