<?xml version="1.0" encoding="UTF-8" standalone="no"?>
<svg
   version="1.1"
   viewBox="0 0 1157.1869 151.41006"
   id="svg11"
   sodipodi:docname="pomeredby.svg"
   width="1157.1869"
   height="151.41006"
   inkscape:version="1.3 (0e150ed6c4, 2023-07-21)"
   xmlns:inkscape="http://www.inkscape.org/namespaces/inkscape"
   xmlns:sodipodi="http://sodipodi.sourceforge.net/DTD/sodipodi-0.dtd"
   xmlns="http://www.w3.org/2000/svg"
   xmlns:svg="http://www.w3.org/2000/svg">
  <defs
     id="defs11">
    <rect
       x="14.454967"
       y="23.127947"
       width="517.48779"
       height="86.729805"
       id="rect11" />
  </defs>
  <sodipodi:namedview
     id="namedview11"
     pagecolor="#ffffff"
     bordercolor="#666666"
     borderopacity="1.0"
     inkscape:showpageshadow="2"
     inkscape:pageopacity="0.0"
     inkscape:pagecheckerboard="0"
     inkscape:deskcolor="#d1d1d1"
     inkscape:zoom="0.69180372"
     inkscape:cx="753.10378"
     inkscape:cy="149.60891"
     inkscape:window-width="1920"
     inkscape:window-height="1009"
     inkscape:window-x="-8"
     inkscape:window-y="-8"
     inkscape:window-maximized="1"
     inkscape:current-layer="svg11" />
  <g
     stroke-width="2"
     fill="none"
     stroke-linecap="butt"
     id="g3"
     transform="translate(-73.274789,-32.559932)">
    <path
       stroke="#913225"
       vector-effect="non-scaling-stroke"
       d="m 291.75,61.96 -1.29,0.79"
       id="path1" />
    <path
       stroke="#913225"
       vector-effect="non-scaling-stroke"
       d="m 290.46,86.25 q 0.18,1 1.29,0.79"
       id="path2" />
    <path
       stroke="#9e5695"
       vector-effect="non-scaling-stroke"
       d="m 317.25,62.79 -0.79,-1.04"
       id="path3" />
  </g>
  <g
     id="g11"
     transform="translate(543.97521)">
    <path
       fill="#231f20"
       d="m 258.5,29.400068 -1.29,0.79 -23.92,-0.16 a 0.55,0.55 0 0 0 -0.56,0.56 l 0.01,22.69 q 0,0.57 0.56,0.56 l 23.91,-0.15 q 0.18,1 1.29,0.79 -0.26,1.11 -0.25,2.27 0.13,26.63 0,53.270002 -0.03,6.04 1.39,8.58 c 5.02,9.04 19.56,5.09 26.4,0.55 a 0.65,0.64 63.7 0 1 0.97,0.33 l 7.8,22.64 q 0.27,0.79 -0.45,1.23 c -10.63,6.37 -25.08,7.22 -36.08,6.88 -14.55,-0.46 -25.12,-8.39 -29.59,-21.84 q -2.13,-6.44 -2.15,-11.26 -0.08,-31.210002 -0.03,-62.430002 a 0.5,0.5 0 0 0 -0.5,-0.51 h -14.26 q -0.5,0 -0.5,-0.5 v -18.97 a 0.85,0.86 78.6 0 1 0.53,-0.79 q 6.99,-2.97 14.02,-5.71 c 1.49,-0.57 10.17,-24.3500004 11.44,-27.59000043 q 0.25,-0.62 0.91,-0.62 L 256.86,6.7567568e-5 Q 258.32,-0.00993243 258.33,1.4600676 Z"
       id="path4" />
    <path
       fill="#231f20"
       d="m 86.5,122.74007 v 26.06 a 0.55,0.55 0 0 1 -0.55,0.55 l -85.4,-0.2 A 0.55,0.55 0 0 1 0,148.60007 V 1.4900676 A 0.55,0.55 0 0 1 0.55,0.94006757 H 31.7 A 0.55,0.55 0 0 1 32.25,1.4900676 L 32.24,121.64007 a 0.55,0.55 0 0 0 0.55,0.55 h 53.16 a 0.55,0.55 0 0 1 0.55,0.55 z"
       id="path5" />
    <path
       fill="#3c67ff"
       d="m 284,30.230068 -0.79,-1.04 q -0.06,-0.48 0.06,-0.95 0.1,-0.41 0.09,-0.83 L 283.2,4.8700676 q 0,-0.68 0.68,-0.68 h 24.62 a 0.75,0.75 0 0 1 0.75,0.75 V 29.440068 q 0,0.55 -0.55,0.56 z"
       id="path6" />
    <path
       fill="#231f20"
       d="m 337.25,28.920068 c 26.38,-5.91 55.26,4.09 61.08,33.47 2.22,11.22 1.59,22.8 0.14,34.19 q -0.11,0.86 -0.97,0.86 h -69.56 q -0.67,0 -0.67,0.67 c 0.07,32.700002 35.85,34.550002 54.8,17.670002 q 0.43,-0.39 0.73,0.1 l 13.34,21.65 a 0.93,0.92 55.3 0 1 -0.22,1.22 q -14.31,11.03 -32.61,12.26 c -11.73,0.8 -25.32,0.9 -37.91,-4.6 -16.92,-7.38 -25.5,-21.83 -28.31,-39.79 C 292,74.110068 300.4,37.190068 337.25,28.920068 Z m 32.31,46.39 c 2.79,-34.36 -41.41,-28.78 -41.51,-0.31 q 0,0.94 0.95,0.95 l 39.84,0.03 a 0.72,0.72 0 0 0 0.72,-0.67 z"
       id="path7" />
    <path
       fill="#231f20"
       d="m 413.23,64.440068 c 8.9,-31.37 40.32,-42.39 69.53,-34.79 q 13.82,3.59 22.8,14.31 a 1.22,1.21 48.6 0 1 -0.1,1.66 l -20.26,19.25 q -0.51,0.48 -0.92,-0.1 -9.15,-13.1 -24.22,-10.43 c -20.02,3.55 -18.74,33.53 -16.64,47.920002 1.69,11.61 7.02,22.25 20.18,22.75 q 12.68,0.48 20.82,-10.73 0.57,-0.8 1.29,-0.13 l 19.36,17.94 q 0.37,0.35 0.06,0.75 -12.97,16.48 -34.14,18.05 c -15.86,1.18 -31.42,0.38 -43.88,-10.25 -19.9,-16.98 -20.33,-53.480002 -13.88,-76.200002 z"
       id="path8" />
    <path
       fill="#231f20"
       d="m 541.47,103.23007 c 1.08,10.97 7.18,19.18 18.02,21.72 q 19.74,4.62 36,-8.72 0.77,-0.64 1.29,0.21 l 12.7,20.54 q 0.83,1.34 -0.44,2.27 -14.7,10.69 -32.24,11.77 c -6.78,0.42 -17.2,0.65 -24.42,-0.6 q -35.69,-6.2 -41.67,-43.97 c -5.23,-33.010002 4.05,-71.100002 42.37,-77.910002 24.93,-4.42 51.21,4.17 58.23,30.86 2.79,10.6 1.96,25 0.96,36.89 a 1.26,1.27 2.5 0 1 -1.26,1.16 l -69.54,-0.03 a 0.69,0.69 0 0 0 -0.68,0.81 q 0.42,2.280002 0.68,5.000002 z m 41.62,-30.350002 c 0.41,-11.72 -4.59,-20.44 -17.22,-21 -15.67,-0.7 -22.27,9.14 -24.37,23.58 q -0.07,0.48 0.42,0.48 l 40.76,0.02 a 0.53,0.53 0 0 0 0.52,-0.43 c 0.19,-0.95 -0.14,-1.82 -0.11,-2.65 z"
       id="path9" />
    <path
       fill="#ff442a"
       d="m 283.21,29.190068 0.79,1.04 -0.18,23.66 q 0,0.52 -0.53,0.53 l -24.79,0.06 q -1.11,0.21 -1.29,-0.79 v -23.5 l 1.29,-0.79 z"
       id="path10" />
    <path
       fill="#231f20"
       d="m 194.7,29.660068 a 0.55,0.55 0 0 1 0.55,0.55 V 148.71007 q 0,0.45 -0.44,0.46 l -26.01,0.22 q -0.62,0.01 -0.84,-0.56 l -4.14,-10.47 a 0.43,0.43 0 0 0 -0.72,-0.12 c -10.26,12.25 -22.29,13.43 -37.32,12.89 -20.54,-0.74 -31.92,-16.72 -31.98,-36.25 Q 93.69,73.290068 93.76,30.570068 a 0.71,0.71 0 0 1 0.72,-0.71 l 31.04,0.12 q 0.48,0 0.48,0.48 -0.01,39.76 0.03,79.460002 0.01,9.86 7.2,14.1 c 10.31,6.07 23.47,1.11 28.89,-9.45 q 1.12,-2.17 1.12,-5.09 0.02,-39.480002 0.01,-79.050002 a 0.53,0.54 0 0 1 0.53,-0.54 z"
       id="path11" />
  </g>
  <text
     xml:space="preserve"
     id="text11"
     style="font-style:normal;font-weight:normal;font-size:74.6667px;line-height:1.25;font-family:sans-serif;white-space:pre;shape-inside:url(#rect11);fill:#000000;fill-opacity:1;stroke:none"
     transform="translate(-19.887372,13.00947)"><tspan
       x="14.455078"
       y="91.066286"
       id="tspan2"><tspan
         style="font-weight:bold;font-family:Arial;-inkscape-font-specification:'Arial Bold'"
         id="tspan1">POWERED BY</tspan></tspan></text>
</svg>
