<?xml version="1.0" encoding="UTF-8" standalone="no"?>
<svg viewBox="0 0 613 150.95206" width="613" height="150.95206" xmlns="http://www.w3.org/2000/svg" xmlns:svg="http://www.w3.org/2000/svg">
  <path d="m 232.2,13.8 -5.3,13.7 -7.7,3.2 -7.7,3.1 v 19.7 l 7.7,0.3 7.7,0.3 0.3,35.2 c 0.3,33.6 0.4,35.4 2.5,40.7 4.5,11 12.2,17 25.1,19.2 11.1,1.9 32.7,-1.2 38.6,-5.5 1.8,-1.3 1.7,-1.8 -1.9,-12.3 -2.1,-6 -4.1,-11.3 -4.5,-11.7 -0.4,-0.5 -2.7,0.1 -5.1,1.4 -5.1,2.6 -14.2,3.1 -18.1,1 -5.1,-2.7 -5.3,-4 -5.3,-37.5 V 53.5 L 271,53 283.5,52.5 v -22 L 271,30 258.5,29.5 258.2,14.7 257.9,0 H 237.5 Z M 258,42 V 54 H 233 V 30 h 25 z M 0,75 v 74 l 43.3,-0.2 43.2,-0.3 v -26 L 59.3,122.2 32,122 V 1 H 0 Z" />
  <path fill="#3c67ff" d="M 284,16.5 V 29 h 25 V 4 h -25 z" />
  <path fill="#ff442a" d="m 258.47,40.929 v 12.5 h 25 v -25 h -25 z" />
  <path d="m 338.1,28.5 c -20.4,4.6 -34.6,18.9 -39.8,40.1 -2.4,9.8 -2.4,31.4 0,41.7 3.8,16.3 12.8,28.7 25.1,34.7 16.5,8.1 45,7.9 61.9,-0.4 9.1,-4.4 11.1,-6 10.3,-8.2 -0.3,-0.9 -3.4,-6.1 -6.8,-11.5 l -6.1,-9.8 -3,2.5 c -7,5.9 -17.4,9 -27.3,8.1 -10.7,-1 -17.4,-5 -21.5,-12.9 -1.9,-3.6 -4,-14.3 -3.1,-15.3 0.3,-0.3 16.2,-0.5 35.4,-0.5 32.3,0 34.9,-0.1 35.6,-1.8 0.4,-0.9 0.7,-8.5 0.7,-16.7 0,-13.1 -0.3,-15.9 -2.3,-21.7 -4.5,-13 -13.8,-22.3 -26.7,-26.9 -7.9,-2.7 -23.6,-3.4 -32.4,-1.4 z m 19.4,23.6 c 7.7,2.2 12.5,9.7 12.5,19.6 V 76 h -21 c -23.8,0 -22.3,0.6 -19.6,-8.4 3.8,-12.4 15.6,-19 28.1,-15.5 z m 93.9,-23.7 c -19.8,4.5 -33.7,18.9 -39.1,40.2 -2.4,9.5 -2.4,35.1 0,44.8 6.6,26.5 24.2,38.7 53.7,37.3 6.6,-0.3 13,-1.3 17.2,-2.6 7,-2.3 17.5,-9.2 20.4,-13.6 l 1.7,-2.6 -9.9,-9.3 -9.9,-9.3 -4.1,4.3 c -5.2,5.3 -12.8,8 -19.7,7 -13.5,-2 -19.4,-15 -18.5,-40.7 0.5,-13.2 2.3,-19.6 7.1,-24.7 7.6,-8.1 22.2,-7.7 30.8,0.9 l 4,4 5.7,-5 c 3.1,-2.7 7.9,-7.2 10.6,-10 l 5,-5.1 -2.9,-3 c -4.4,-4.6 -11.8,-9 -18.8,-11.2 -8.2,-2.6 -25,-3.3 -33.3,-1.4 z m 100.1,0.3 C 536,32 523.9,41.4 517,55.4 c -5.8,11.8 -7.3,20 -6.7,37.6 0.5,15.4 2.2,23.2 7.4,33.4 3.2,6.3 11.6,14.7 17.9,17.9 10,5.1 15.7,6.2 31.9,6.1 16.8,0 23.9,-1.4 33.7,-6.6 9.9,-5.3 9.9,-4.9 2.1,-17.5 l -6.8,-11 -5.5,3.8 c -11.8,8.2 -28.1,9 -39.3,1.9 -5.3,-3.3 -9.3,-10.6 -10.3,-18.8 L 540.7,97 h 71.1 l 0.6,-2.3 c 0.3,-1.2 0.6,-8.6 0.6,-16.4 0,-20.4 -3.4,-30.1 -13.9,-39.6 -11.5,-10.3 -29.1,-14 -47.6,-10 z m 23.8,25 c 4.6,2.6 7.7,9.3 7.7,16.5 V 76 h -41 v -3.3 c 0,-8 7.5,-17.7 15.7,-20.4 4.9,-1.6 13.5,-0.9 17.6,1.4 z M 94.7,29.6 c -1.2,1.2 -0.8,86.4 0.4,93 2.4,12.9 9.3,21.9 20,25.9 4.2,1.6 7.9,2 16.4,2 13.4,0 19.3,-1.8 27.1,-8.1 l 5.4,-4.4 2.5,5.5 2.4,5.5 H 195 V 90 c 0,-32.5 0.1,-59.3 0.3,-59.8 0.1,-0.4 -6.9,-0.8 -15.5,-1 L 164,28.9 v 82.9 l -3.2,4.8 c -8.3,12.2 -25.5,12.9 -32.2,1.4 -2,-3.3 -2.1,-5.4 -2.6,-46 l -0.5,-42.5 -15.1,-0.3 c -8.2,-0.1 -15.3,0.1 -15.7,0.4 z" />
</svg>
